<?xml version="1.0" encoding="utf-8"?>
<!-- Generator: Adobe Illustrator 23.0.1, SVG Export Plug-In . SVG Version: 6.00 Build 0)  -->
<svg version="1.1" id="레이어_1" xmlns="http://www.w3.org/2000/svg" xmlns:xlink="http://www.w3.org/1999/xlink" x="0px"
	 y="0px" viewBox="0 0 1888.66 2886.69" style="enable-background:new 0 0 1888.66 2886.69;" xml:space="preserve">
<style type="text/css">
	.st0{stroke:#FFFFFF;stroke-width:3;stroke-miterlimit:10;}
	.st1{fill:#FFFFFF;}
	.st2{opacity:0.05;}
</style>
<rect x="-112.76" y="-98.84" width="2115.49" height="3105.16"/>
<g>
	<path class="st0" d="M971.55,69.16c19.49,9.17,40.48,16.11,58.18,27.96c44.27,29.64,57.55,74.5,56.37,125.44
		c-0.31,13.45-3.68,25.97,11.17,38.5c6.03,5.09-2.58,32.53-9.73,47.28c-19.43,40.1-45.11,76.91-40.63,125.56
		c3.28,35.58,18.09,61.38,50.58,73.65c28.6,10.8,58.6,19.21,88.73,24.36c52.54,8.99,91.06,34.99,111.64,84.27
		c6.7,16.04,16.7,18.3,31.55,18.22c88.92-0.43,177.85-0.35,266.77-0.15c44,0.1,56.71,12.78,56.73,56.62
		c0.1,252.26,0.1,504.51,0,756.77c-0.02,42.98-13.78,56.53-57.16,57.12c-27.21,0.37-54.44,0.27-81.65,0.47
		c-1.75,0.01-3.5,0.81-5.79,1.37c7.99,24.18,16.01,48.46,24.03,72.73c-4.07,2.63-8.13,5.26-12.2,7.9
		c-15.61-15.3-31.23-30.61-47.26-46.32c11.4,42.83,22.92,86.08,34.43,129.32c-4.59,2.05-9.19,4.1-13.78,6.15
		c-12.06-18.07-24.13-36.15-39.94-59.85c0,33.4,0,62.59,0,91.79c-3.27,0.36-6.55,0.72-9.82,1.08
		c-24.22-27.77-15.08-66.07-27.94-98.43c-3.49,31.62-6.99,63.24-10.48,94.86c-4.8,0.12-9.61,0.24-14.41,0.36
		c-4.38-25.54-8.75-51.09-13.26-77.38c-6.05,14.41-12.23,29.09-18.4,43.78c-3.01-0.3-6.02-0.61-9.03-0.91
		c-2.98-54.72-5.96-109.43-9.03-165.87c-36.17,0-70.02,0-98.1,0c-16.23,125.13-32.3,247.88-48.02,370.68
		c-11.02,86.14-21.79,172.32-32,258.56c-1.24,10.45-0.79,22.38,3.05,31.94c37.57,93.4,21.12,185.15-6.55,276.89
		c-18.29,60.63-38.42,120.88-52.89,182.44c-11.11,47.25-6.17,94.41,14.01,140.79c27.22,62.56,20.53,71.39-46.62,79.8
		c-27.25,3.41-54.52,7.23-81.9,8.89c-16.39,0.99-29.07-6.82-25.99-26.02c2.71-16.9,7.78-33.41,11.83-50.09
		c21.95-90.49,46.67-180.53,47.76-274.59c0.22-18.99-1.07-38.14-3.37-57c-8.16-67-5.82-133.37,1.32-200.64
		c4.58-43.21-4.13-88.16-9.39-132.02c-17.45-145.69-36.03-291.25-54.2-436.86c-0.44-3.49-1.04-6.96-1.73-11.52
		c-9.44,0-18.05,0-26.4,0c-6.43,63.1-11.08,126.29-19.68,188.93c-13.31,96.93-30.95,193.28-43.38,290.31
		c-5.11,39.91-1.91,80.94-1.68,121.46c0.27,47.03,6.08,94.55,1.2,140.99c-9.41,89.51-6.32,177.11,17.69,264.08
		c12.5,45.26,22.66,91.17,33.56,136.87c9.21,38.58,1.87,46.7-37.56,42.19c-36.04-4.12-72.07-8.3-108.08-12.69
		c-17.79-2.17-22.35-14.15-19.16-29.48c2.94-14.13,5.96-28.72,12.06-41.64c29.87-63.26,22.34-126.58,3.9-190.86
		c-22.95-80.01-45.81-160.1-65.96-240.84c-12.11-48.54-3.62-96.78,9.75-144.9c7-25.2,6.13-52.85,6.97-79.45
		c3.83-120.88-33.23-236.59-45.74-355.44c-8.7-82.66-18.76-165.19-28.52-250.46c-29.11,0-63,0-99.78,0
		c-3.05,55.53-6.08,110.62-9.11,165.7c-2.88,0.44-5.75,0.88-8.63,1.32c-6.37-14.9-12.75-29.81-18.88-44.16
		c-4.28,25.55-8.58,51.17-12.88,76.79c-4.78,0.01-9.57,0.01-14.35,0.02c-3.63-31.59-7.26-63.19-10.89-94.78
		c-0.86-0.2-1.73-0.39-2.59-0.59c-6.25,33.11-12.5,66.23-18.75,99.34c-3.82-0.32-7.64-0.65-11.47-0.97
		c-15.94-29.95-2.82-62.99-6.14-94.75c-12.25,20.76-24.66,41.78-37.06,62.8c-3.57-1.48-7.14-2.95-10.71-4.43
		c-4.45-46.46,24.26-87.2,29.51-132.32c-15.68,16.25-30.65,31.77-50.34,52.18c-12.43-38.17,8.12-59.65,19.03-87.46
		c-32.66,0-62.13,0.28-91.6-0.07c-43.31-0.51-57.02-14.15-57.04-57.22c-0.1-252.26-0.1-504.51,0-756.77
		c0.02-43.71,12.8-56.4,56.84-56.5c88.92-0.2,177.85-0.47,266.77,0.29c16.93,0.15,25.5-5.13,32.51-20.97
		c20.63-46.65,57.7-72.25,108.06-81.18c29.26-5.19,58.88-11.83,86.36-22.77c55.52-22.11,74.93-92.17,43.48-143.75
		c-14.86-24.37-28.66-49.77-39.19-76.19c-3.69-9.26,3.52-23.08,6.39-34.66c1.37-5.56,6.52-10.97,6.05-16.08
		C794.87,151.15,833.29,95,917.1,69.16C935.25,69.16,953.4,69.16,971.55,69.16z M1568.63,719.3c-417.09,0-831.88,0-1247.54,0
		c0,234.1,0,466.53,0,698.55c416.88,0,831.73,0,1247.54,0C1568.63,1184.69,1568.63,953.61,1568.63,719.3z"/>
	<path class="st1" d="M1568.63,719.3c0,234.32,0,465.39,0,698.55c-415.82,0-830.66,0-1247.54,0c0-232.02,0-464.45,0-698.55
		C736.74,719.3,1151.54,719.3,1568.63,719.3z"/>
</g>
<path class="st2" d="M940.59,909.54c10.6,9.01,20.92,17.62,30.97,26.53c1.3,1.16,1.8,3.85,1.76,5.81
	c-0.9,40.76-1.77,81.53-2.99,122.28c-1.23,40.97,13.85,76.01,38.89,107.28c34.46,43.02,78.27,73.1,130,91.65
	c18.88,6.77,38.31,10.91,58.63,9.67c23.88-1.46,40.62-13.77,48.81-36.32c6.68-18.38,8.77-37.58,8.87-56.86
	c0.2-38.73-0.03-77.47-0.96-116.19c-0.55-22.63-6.37-44.5-13.7-65.86c-17.12-49.86-43.06-94.95-75.46-136.31
	c-21.23-27.11-45.01-51.78-74.62-70.06c-10.96-6.77-22.69-11.95-35.59-13.58c-20.86-2.64-36.42,6.43-47.96,23.11
	c-10.22,14.76-16.23,31.43-20.58,48.71c-2.24,8.89-4.2,17.85-6.58,27.99c-5.79-8.26-12.18-14.52-12.09-25.13
	c0.4-45.05,0.25-90.1,0.05-135.15c-0.02-4.82-0.88-9.96-2.72-14.39c-4.04-9.74-13.44-14.7-24-13.69c-9.98,0.95-18.29,7.9-20.7,17.82
	c-0.87,3.6-1.12,7.43-1.13,11.15c-0.07,43.34-0.16,86.69,0.08,130.03c0.03,6.02-1.17,10.9-5.47,15.16c-2.48,2.45-4.47,5.41-7.1,8.66
	c-2.94-11.54-5.43-22.26-8.41-32.83c-3.86-13.67-9.26-26.76-17.21-38.6c-16.43-24.45-39.47-31.2-66.91-20.03
	c-4.62,1.88-12.52,4.93-22.12,10.51c-20.09,11.69-32.83,26.15-38.66,32.92c-36.73,42.61-76.49,88.73-65.3,122.43
	c2.65,7.98,7.74,13.36,14.03,19.18c62.68,58,189.13,74.11,204.16,42.34c5.97-12.63-6.33-31.41,5.24-65.45
	c1.22-3.58,2.37-6.37,3-7.84C923.41,926.17,932,917.86,940.59,909.54z"/>
</svg>
